<svg id="visual" viewBox="0 0 900 600" width="900" height="600" xmlns="http://www.w3.org/2000/svg" xmlns:xlink="http://www.w3.org/1999/xlink" version="1.1"><path d="M0 428L21.5 418.5C43 409 86 390 128.8 390.5C171.7 391 214.3 411 257.2 408.7C300 406.3 343 381.7 385.8 368.3C428.7 355 471.3 353 514.2 367.2C557 381.3 600 411.7 642.8 420C685.7 428.3 728.3 414.7 771.2 412.5C814 410.3 857 419.7 878.5 424.3L900 429L900 601L878.5 601C857 601 814 601 771.2 601C728.3 601 685.7 601 642.8 601C600 601 557 601 514.2 601C471.3 601 428.7 601 385.8 601C343 601 300 601 257.2 601C214.3 601 171.7 601 128.8 601C86 601 43 601 21.5 601L0 601Z" fill="#f7e00f"></path><path d="M0 445L21.5 449.2C43 453.3 86 461.7 128.8 462.8C171.7 464 214.3 458 257.2 445.3C300 432.7 343 413.3 385.8 411.5C428.7 409.7 471.3 425.3 514.2 427C557 428.7 600 416.3 642.8 421.3C685.7 426.3 728.3 448.7 771.2 448.2C814 447.7 857 424.3 878.5 412.7L900 401L900 601L878.5 601C857 601 814 601 771.2 601C728.3 601 685.7 601 642.8 601C600 601 557 601 514.2 601C471.3 601 428.7 601 385.8 601C343 601 300 601 257.2 601C214.3 601 171.7 601 128.8 601C86 601 43 601 21.5 601L0 601Z" fill="#8bbd37"></path><path d="M0 504L21.5 502.3C43 500.7 86 497.3 128.8 496.2C171.7 495 214.3 496 257.2 493C300 490 343 483 385.8 473.8C428.7 464.7 471.3 453.3 514.2 453.3C557 453.3 600 464.7 642.8 475.2C685.7 485.7 728.3 495.3 771.2 491.8C814 488.3 857 471.7 878.5 463.3L900 455L900 601L878.5 601C857 601 814 601 771.2 601C728.3 601 685.7 601 642.8 601C600 601 557 601 514.2 601C471.3 601 428.7 601 385.8 601C343 601 300 601 257.2 601C214.3 601 171.7 601 128.8 601C86 601 43 601 21.5 601L0 601Z" fill="#34914c"></path><path d="M0 493L21.5 500.7C43 508.3 86 523.7 128.8 521.8C171.7 520 214.3 501 257.2 494.7C300 488.3 343 494.7 385.8 494.7C428.7 494.7 471.3 488.3 514.2 489C557 489.7 600 497.3 642.8 501.5C685.7 505.7 728.3 506.3 771.2 510.8C814 515.3 857 523.7 878.5 527.8L900 532L900 601L878.5 601C857 601 814 601 771.2 601C728.3 601 685.7 601 642.8 601C600 601 557 601 514.2 601C471.3 601 428.7 601 385.8 601C343 601 300 601 257.2 601C214.3 601 171.7 601 128.8 601C86 601 43 601 21.5 601L0 601Z" fill="#00624b"></path><path d="M0 524L21.5 532C43 540 86 556 128.8 558.5C171.7 561 214.3 550 257.2 549.5C300 549 343 559 385.8 564.7C428.7 570.3 471.3 571.7 514.2 568.5C557 565.3 600 557.7 642.8 552.5C685.7 547.3 728.3 544.7 771.2 544.5C814 544.3 857 546.7 878.5 547.8L900 549L900 601L878.5 601C857 601 814 601 771.2 601C728.3 601 685.7 601 642.8 601C600 601 557 601 514.2 601C471.3 601 428.7 601 385.8 601C343 601 300 601 257.2 601C214.3 601 171.7 601 128.8 601C86 601 43 601 21.5 601L0 601Z" fill="#003333"></path></svg>